<svg xmlns="http://www.w3.org/2000/svg" viewBox="0 0 260 360" role="img" aria-label="Dealer">
  <defs>
    <linearGradient id="skin" x1="0" x2="0" y1="0" y2="1">
      <stop offset="0" stop-color="#ffe0c7"/>
      <stop offset="1" stop-color="#d89a78"/>
    </linearGradient>
    <linearGradient id="hair" x1="0" x2="1" y1="0" y2="1">
      <stop offset="0" stop-color="#17100f"/>
      <stop offset="1" stop-color="#3d241d"/>
    </linearGradient>
    <linearGradient id="dress" x1="0" x2="0" y1="0" y2="1">
      <stop offset="0" stop-color="#1a1518"/>
      <stop offset="1" stop-color="#070608"/>
    </linearGradient>
    <filter id="soft" x="-20%" y="-20%" width="140%" height="140%">
      <feDropShadow dx="0" dy="12" stdDeviation="12" flood-color="#06120d" flood-opacity=".32"/>
    </filter>
  </defs>
  <g filter="url(#soft)">
    <path fill="url(#hair)" d="M71 121c-5-47 21-83 62-83 38 0 61 31 61 76 0 39-16 69-16 109H86c2-43-10-65-15-102Z"/>
    <path fill="#241715" d="M90 83c-18 18-22 46-13 82 8-29 23-50 52-58 21-6 38-17 42-38-23-25-59-22-81 14Z"/>
    <path fill="url(#skin)" d="M91 279c9-56 23-96 39-96s31 40 40 96l15 62H76l15-62Z"/>
    <path fill="url(#dress)" d="M70 341c10-75 30-126 60-126s50 51 60 126H70Z"/>
    <path fill="#f2c0a4" d="M87 153c-15 12-29 41-47 96l20 9c19-48 35-72 54-85l-27-20Zm86 0c15 12 29 41 47 96l-20 9c-19-48-35-72-54-85l27-20Z"/>
    <path fill="#111" d="M55 248c5 10 10 15 20 18l12-27c-10-2-18-5-25-12l-7 21Zm150-21c-7 7-15 10-25 12l12 27c10-3 15-8 20-18l-7-21Z"/>
    <path fill="url(#skin)" d="M92 103c0-33 17-54 39-54s39 21 39 54v31c0 31-18 53-39 53s-39-22-39-53v-31Z"/>
    <path fill="url(#hair)" d="M87 114c18-10 30-27 35-54 20 29 43 39 51 41-1-36-19-63-44-63-29 0-50 31-42 76Z"/>
    <path fill="#1b1110" d="M91 126c-11 33-4 75 19 93-35-14-52-50-39-102l20 9Zm78 0c11 33 4 75-19 93 35-14 52-50 39-102l-20 9Z"/>
    <path fill="#211719" d="M96 198c18 15 49 15 68 0l11 25c-29 21-61 21-90 0l11-25Z"/>
    <path fill="#f7e0d1" d="M116 197h28l-14 22-14-22Z"/>
    <path fill="#d75863" d="M113 145c8 6 25 6 34 0-5 11-29 11-34 0Z"/>
    <circle cx="114" cy="116" r="4" fill="#1c1718"/>
    <circle cx="148" cy="116" r="4" fill="#1c1718"/>
    <path fill="none" stroke="#6d423a" stroke-linecap="round" stroke-width="3" d="M125 125c-3 7-4 12 3 15"/>
    <path fill="#f5d9c6" d="M86 122c-9 0-13 9-9 19 2 6 7 10 13 10l-4-29Zm88 0c9 0 13 9 9 19-2 6-7 10-13 10l4-29Z"/>
    <circle cx="82" cy="150" r="5" fill="#f8efd9"/>
    <circle cx="178" cy="150" r="5" fill="#f8efd9"/>
    <path fill="#fff8dd" d="M67 333h126v13H67z"/>
    <path fill="#d8a646" d="M47 346h166v10H47z"/>
  </g>
</svg>
